<svg id="a433eff3-fa9f-4065-8b61-a935765885e3" data-name="bb180c1c-649a-4479-96eb-ff558a6f4f06" xmlns="http://www.w3.org/2000/svg" viewBox="0 0 894.01 222.95"><g id="f61245d2-c2df-46e0-8b64-65204031149e" data-name="a464b8c6-a637-471d-b1fc-79a8b32e1fbe"><path id="ad138410-8e85-4417-995d-93dffcf132a4" data-name="a5ca15ee-2e8e-475b-a464-7535be2e62af" d="M176,15.06c-25.43,0-53.08,7.16-78.27,20.24C66.9,51.1,39.5,74.8,23,100.24c-2.72,4.2-4,7.9-3.7,10.37.49,3.21,3.21,4.93,8.39,4.93,8.89,0,14.32-4.69,18.27-14.07C58.76,70.61,76.53,50.12,99.25,38c18.27-9.61,39.26-14,63.45-14,56.79,0,71.11,32.09,65.43,56.29-3,12.84-13.09,24.44-25.93,31.6-18,1.73-39.5,4.44-61.47,9.63l.25-1c14.81-34.32,34.31-85.92,45.92-91.6l-1.73-.49c-22,10.86-44.69,46.66-62,89.87-16.79,41.23-26.42,76-41.48,87.4-3.45,2.71-8.39,3.2-13.58,3.2-19,0-44.11-11.9-53.79-11.9a4.84,4.84,0,0,0-2,.25c-4,2.22-8.14,7.41-10.61,12.34A15,15,0,0,0,0,216.27c0,.49,0,.74.25,1,2,2.22,6.91,3.7,14.81,3.7,5.19,0,22.72-1.24,70.12-.74,8.39,0,28.64.49,57,.49,11.36,0,23.95-4,35.56-9.88A101,101,0,0,0,194.31,201c12.59-8.89,22.47-19.26,26.42-27.9,8.64-18.27,6.91-50.37-15.56-60.49,13.83-7.41,32.1-23,36.79-37C251.83,46.41,233.81,15.06,176,15.06Zm30.86,164.19c-3.7,8.89-7.9,15.31-14.32,19.75-7.65,5.18-18.51,7.65-35.3,9.14-29.63,2.47-64.94,1.23-77.28,0,22.22-6.18,40-38.27,59.75-84.94,14.81-2.22,35.55-2.71,47.9-1,21.26,8.41,27.92,37.05,19.28,57.05Z" class="l-line" fill="#161615"/><path id="f8efd279-51a4-4daf-8f58-a0604695538d" data-name="b058d3f5-307e-4c48-bce2-681cf3489b4d" d="M390.34,207.88c-3.45-.74-6.91-3.45-7.4-7.16-.74-7.65,5.43-22.22,14.07-37.77,25.18-44.2,53.82-94.56,91.1-157.27-.74-2.23-1.48-3.7-5.92-4.69a485.45,485.45,0,0,1-77.28,19l.25,1.48C419,19.75,435,17,442.68,15.31c5.19-1.24,10.62-1,13.58,1.48a8.47,8.47,0,0,1,3,6.17c-24,40.74-53.58,92.09-80,138-3.56,6.2-6.72,12.62-10.48,18.7a64.45,64.45,0,0,1-13.69,15.67,56.87,56.87,0,0,1-34,13c-1.11,0-2.21.08-3.32.07-33.33,0-59.75-23.7-59.75-54.06a76,76,0,0,1,2.23-19h84.19c7.65,0,9.88-3.46,10.37-7.66,1.48-11.35-7.41-33.33-43-33.33-34.07,0-68.64,32.1-68.64,69.13,0,34.07,24.2,59.26,62,59.26,14.08,0,26.42-4.45,37.28-11.6a96.28,96.28,0,0,0,23.44-22.83c-2,5.59-3.09,10.66-2.7,14.67.25,4.94,3,12.35,7.9,16.3.74.49,4.2,1,7.41,1a13.27,13.27,0,0,0,5.19-.74c15.3-9.38,28.88-22,37.77-30.86L420,186.89C411.08,196.28,398.24,205.17,390.34,207.88ZM304.92,99.74c19,0,28.39,13.09,28.39,22.47,0,3.21-.74,6.17-2.22,7.9-.74.74-6.42,2.22-9.88,2.22-16,0-32.59,1-60.49,1C266.89,110.85,283.68,99.74,304.92,99.74Z" class="l-line" fill="#161615"/><path id="a8b42e4a-7e1d-4607-8e02-365347b22220" data-name="a5639c9a-1f3f-4ae3-84be-9c645be204f7" d="M458.67,207.88a11.19,11.19,0,0,1-8.15-9.87c-.49-9.14,6.42-22.72,15.31-39,15.55-28.39,31.85-57.53,49.13-85.92,18.27-31.6,30.61-45.93,42.71-53.09,8.4-4.93,17-5.67,26.91-5.67,23.95,0,46.42,4.2,62.22,4.2,4.69,0,11.11-8.89,11.11-14.57,0-1.48-1-2.47-2.71-2.71C649.27.25,636.93,0,626.56,0c-26.17,0-49.88,7.41-69.88,18C529,32.84,508.54,54.07,498.17,71.35,491,82.21,466.81,122.7,448.54,156c-8.39,15.3-18,33.33-17.28,43.45.25,4.94,2.22,15.06,8.4,19.75.74.49,3.95,1,6.91,1a13.68,13.68,0,0,0,5.19-.74c15.55-9.38,29.13-22,38.27-30.86l-1.48-1.73C479.41,196.27,466.57,205.17,458.67,207.88Z" class="l-line" fill="#161615"/><path id="eeebc165-89ae-4ee3-8b6f-e2a93813a477" data-name="b152bd96-c167-40d2-bf03-a80bf032f3f1" d="M627.55,200.72c-2.72,4.94-8.89,13.58-13.34,13.58-5.18,0-6.91-6.91-6.91-21,0-9.63,2-37.53,2-54.07,0-32.35-17.29-44.94-41.48-44.94-17.53,0-38.27,10.37-48.15,16.79-6.17,4-8.64,8.64-8.64,11.6,0,3.46,4,5.68,9.88,5.68,6.66,0,8.89-1.23,11.11-4.44,3.7-5.44,6.91-15.8,15.31-22.22,4.2-3.21,9.38-5.19,16.54-5.19,17.53,0,25.43,9.14,26.66,40l-20.74,8.15c-45.67,17.77-61.72,34.07-61.72,50.61,0,15.06,12.1,27.65,32.1,27.65,20.49,0,43.21-25.68,48.39-36.54-.49,5.19-1,12.84-1,18.77,0,11.11,4.69,17.53,14.08,17.53,9.62,0,24.93-14.33,28.88-20C631.74,200.72,628.78,198.75,627.55,200.72Zm-37-57c0,20.25-1.48,34.32-1.73,37.53-2.22,8.15-19.5,30.86-36.54,30.86-15.06,0-26.91-10.62-26.91-24,0-18.27,8.64-25.67,44.94-41l20.24-8.64Z" class="l-line" fill="#161615"/><path id="b2b071a1-0bf0-4291-b811-9230b144a292" data-name="bfe99fb6-5f39-48e2-9ee1-1d1713dad187" d="M694,94.31a26.06,26.06,0,0,0-14.08,4.2c-6.66,4.45-13.33,10.13-16.3,21-1-9.63-6.41-18.76-10.61-22.72-.74-.74-1-.74-1.48-.24-4.2,4.2-12.59,8.64-17,10.37-.49.24-.74.74,0,1.48,5.68,5.18,11.36,11.6,11.36,18.76v63.7c0,25.68-1.73,27.16-13.83,27.16-2,0-2,2.22,0,2.22,7.16,0,21.48-.49,25.19-.49,4,0,20,.49,22,.49s2-2.22,0-2.22H664.08V135.3c0-11.11.49-17,3.46-20.25,2.71-3,7.4-3.46,16-3.46h9.14c8.64,0,12.34-8.88,12.34-12.83C705.07,95.55,699.88,94.31,694,94.31Z" class="l-line" fill="#161615"/><path id="a1514dd7-948e-43c9-a25e-4c8169f6d144" data-name="a8c4c39e-84b9-4909-9daa-cb06ef3ad8c3" d="M734.45,73.08a13,13,0,0,0,13.09-12.84h0a13.18,13.18,0,0,0-13.09-13.09,13,13,0,0,0-12.84,13.09h0a12.77,12.77,0,0,0,12.67,12.84Z" class="l-line" fill="#161615"/><path id="a8d348b8-0cdc-4718-bd47-407e7f99eb5b" data-name="b06376d3-24f7-42a4-a497-17f482abaf72" d="M759.63,218c-13.82,0-14.81-3.7-14.81-24.94V96c0-1.23-3.7-2.22-4.44-1.73-9.63,6.67-18.52,11.36-30.86,14.07-2,.5-1.24,2.47.74,2,12.34-2.72,15.8-2,15.8,16.79v65.92c0,21.23-1,24.94-15.06,24.94-2,0-2,2.22,0,2.22,7.16,0,21.23-.49,24.93-.49s16.54.49,23.7.49C761.61,220.23,761.61,218,759.63,218Z" class="l-line" fill="#161615"/><path id="ed1da2f2-8749-47db-8f12-7257792e2423" data-name="bebabea1-e93e-4f87-99ea-1a4b8411731e" d="M890.74,200.72c-2.72,4.94-8.89,13.58-13.33,13.58-5.19,0-6.92-6.91-6.92-21,0-9.63,2-37.53,2-54.07,0-32.35-17.29-44.94-41.48-44.94-17.53,0-38.27,10.37-48.15,16.79-6.17,4-8.64,8.64-8.64,11.6,0,3.46,3.95,5.68,9.88,5.68,6.67,0,8.89-1.23,11.11-4.44,3.7-5.44,6.91-15.8,15.31-22.22,4.2-3.21,9.38-5.19,16.54-5.19,17.53,0,25.43,9.14,26.66,40L833,144.68c-45.68,17.78-61.73,34.07-61.73,50.62,0,15.06,12.1,27.65,32.1,27.65,20.5,0,43.21-25.68,48.39-36.54-.49,5.18-1,12.84-1,18.76,0,11.11,4.69,17.53,14.07,17.53,9.63,0,24.94-14.32,28.89-20C894.93,200.72,892,198.75,890.74,200.72Zm-37-57c0,20.25-1.48,34.32-1.73,37.53-2.22,8.15-19.5,30.86-36.54,30.86-15.06,0-26.91-10.62-26.91-24,0-18.27,8.64-25.67,44.94-41l20.24-8.64Z" class="l-line" fill="#161615"/></g></svg>