<svg id="b11516d4-f7ba-42b4-bb8e-6e622ace3372" data-name="Ebene 1" xmlns="http://www.w3.org/2000/svg" viewBox="0 0 1640.2 298.11"><g id="a60f9521-b069-4893-a28e-9e78c8d07d06" data-name="Gruppe 16"><g id="eb64af28-1db6-43ec-8700-ad7a02b2bab7" data-name="Gruppe 15"><path id="b8b3a25c-fa7a-4aa5-90a6-43cbd98e9b86" data-name="Pfad 33" d="M415.85,276.85c22.33-2,36.78-5.26,47-12.15,8.54-5.91,14.12-14.45,19.05-26.28,11.49-26.6,2.62-64.69-25.62-75.86-16.42-2.3-44-1.64-63.71,1.32-26.27,62.07-49.92,104.76-79.48,113,16.42,1.64,63.39,3.28,102.8,0M207,289c-.33-.33-.33-.66-.33-1.31a19.73,19.73,0,0,1,2.3-8.87c3.28-6.57,8.87-13.47,14.12-16.42a6.51,6.51,0,0,1,2.63-.33c12.81,0,46.3,15.76,71.59,15.76,6.9,0,13.46-.65,18.06-4.27,20-15.1,32.85-61.41,55.18-116.25,23-57.47,53.2-105.09,82.43-119.54l2.3.65c-15.44,7.56-41.38,76.2-61.09,121.85l-.32,1.31c29.23-6.9,57.8-10.51,81.77-12.81,17.08-9.52,30.54-25,34.48-42,7.56-32.18-11.49-74.87-87-74.87-32.19,0-60.1,5.91-84.4,18.71-30.22,16.1-53.86,43.35-70.94,84.4-5.25,12.48-12.48,18.72-24.3,18.72-6.9,0-10.51-2.3-11.16-6.57-.33-3.28,1.31-8.2,4.92-13.79C259.2,99.5,295.66,68,336.71,47,370.21,29.56,407,20,440.81,20c76.85,0,100.83,41.71,87.69,80.46-6.24,18.72-30.54,39.41-48.93,49.26,29.88,13.47,32.18,56.16,20.69,80.46-5.26,11.5-18.39,25.29-35.14,37.11a134,134,0,0,1-22,13.13c-15.44,7.89-32.19,13.14-47.29,13.14-37.77,0-64.7-.66-75.87-.66-63-.65-86.37,1-93.26,1-10.51,0-17.08-2-19.71-4.93" fill="#161615"/><path id="ad1a2ebc-7a9f-4908-afc7-200772f53f5f" data-name="Pfad 34" d="M612.25,132.68c25.28,0,37.76,17.41,37.76,29.89,0,4.27-1,8.21-3,10.51-1,1-8.54,2.95-13.14,2.95-21.34,0-43.35,1.31-80.46,1.31,8.21-29.88,30.54-44.66,58.79-44.66M725.88,276.52c-4.6-1-9.2-4.6-9.86-9.52-1-10.18,7.23-29.56,18.72-50.25C768.24,158,806.33,91,855.93,7.55c-1-2.95-2-4.92-7.88-6.24A645.56,645.56,0,0,1,745.25,26.6l.33,2c18.39-2.3,39.74-5.91,49.92-8.21,6.9-1.64,14.12-1.32,18.06,2a11.27,11.27,0,0,1,3.94,8.21C785.65,84.72,746.24,153,711.1,214.11c-4.74,8.25-8.94,16.79-13.94,24.88A85.53,85.53,0,0,1,679,259.83a75.62,75.62,0,0,1-45.22,17.24c-1.47.07-2.94.1-4.4.1-44.34,0-79.48-31.53-79.48-71.92a101.17,101.17,0,0,1,3-25.29h112c10.18,0,13.14-4.6,13.79-10.18,2-15.1-9.85-44.33-57.14-44.33-45.32,0-91.3,42.69-91.3,92,0,45.32,32.19,78.82,82.43,78.82,18.72,0,35.14-5.91,49.59-15.44,12-8,22.43-18.58,31.18-30.35-2.65,7.43-4.11,14.18-3.59,19.52.33,6.56,3.94,16.42,10.51,21.67,1,.66,5.58,1.32,9.85,1.32,3,0,5.58-.33,6.9-1,20.36-12.48,38.42-29.23,50.25-41l-2-2.3c-11.83,12.48-28.9,24.3-39.41,27.91" fill="#161615"/><path id="bd468cf2-cdf8-4b67-bad0-046f389745c9" data-name="Pfad 35" d="M791.47,291.63c-8.21-6.24-10.83-19.7-11.16-26.27-1-13.47,11.82-37.44,23-57.8,24.3-44.34,56.49-98.2,66-112.65,13.8-23,41.05-51.23,77.83-70.94,26.61-14.12,58.14-24,92.95-24,13.79,0,30.21.33,38.09,1.64,2.3.33,3.61,1.65,3.61,3.62,0,7.55-8.54,19.37-14.78,19.37-21,0-50.9-5.58-82.75-5.58-13.14,0-24.63,1-35.8,7.55-16.1,9.53-32.52,28.57-56.82,70.61C868.64,135,847,173.73,826.28,211.5c-11.82,21.67-21,39.73-20.36,51.89a14.9,14.9,0,0,0,10.84,13.13c10.51-3.61,27.59-15.43,39.74-27.91l2,2.3c-12.15,11.82-30.22,28.57-50.9,41-1.31.65-3.94,1-6.9,1-3.94,0-8.21-.66-9.2-1.31" fill="#161615"/><path id="ad730ce8-4f7b-4527-973f-7a8bd76e9fe5" data-name="Pfad 36" d="M941.23,282.1c22.66,0,45.64-30.21,48.6-41.05.32-4.27,2.3-23,2.3-49.91v-6.9L965.2,195.73c-48.28,20.36-59.77,30.21-59.77,54.52,0,17.73,15.76,31.85,35.8,31.85m-58.79-22.33c0-22,21.35-43.68,82.1-67.32l27.59-10.84c-1.64-41.05-12.15-53.2-35.47-53.2-9.52,0-16.42,2.63-22,6.9-11.16,8.54-15.43,22.33-20.36,29.56-3,4.26-5.91,5.91-14.78,5.91-7.88,0-13.13-3-13.13-7.56,0-3.94,3.28-10.18,11.49-15.43,13.14-8.54,40.72-22.33,64-22.33,32.18,0,55.18,16.75,55.18,59.77,0,22-2.64,59.11-2.64,71.92,0,18.72,2.3,27.91,9.2,27.91,5.91,0,14.12-11.49,17.74-18.06,1.64-2.63,5.58,0,3.94,2.63-5.26,7.55-25.62,26.6-38.43,26.6-12.48,0-18.72-8.54-18.72-23.32,0-7.88.66-18.06,1.31-25-6.89,14.45-37.11,48.6-64.36,48.6-26.6,0-42.7-16.75-42.7-36.78" fill="#161615"/><path id="b8bbaa8f-2516-4fdd-a1fc-fe815f51a61c" data-name="Pfad 37" d="M1047.3,290c16.09,0,18.39-2,18.39-36.13V169.13c0-9.52-7.55-18.06-15.11-25-1-1-.65-1.64,0-2,5.91-2.3,17.08-8.21,22.66-13.8.66-.65,1-.65,2,.34,5.59,5.25,12.81,17.4,14.12,30.21,4-14.45,12.81-22,21.68-27.92a34.74,34.74,0,0,1,18.72-5.58c7.88,0,14.78,1.65,14.78,5.91,0,5.25-4.93,17.08-16.42,17.08h-12.15c-11.5,0-17.74.66-21.35,4.6-3.94,4.26-4.6,12.15-4.6,26.93V290h20c2.63,0,2.63,2.95,0,2.95s-24-.65-29.23-.65c-4.92,0-24,.65-33.5.65-2.62,0-2.62-2.95,0-2.95" fill="#161615"/><path id="b5d340cd-2059-45a6-a0f4-d36368a1bda0" data-name="Pfad 38" d="M1166.52,80.13a17.23,17.23,0,0,1,17.07-17.4h0a17.51,17.51,0,0,1,17.4,17.4,17.24,17.24,0,0,1-17.4,17.08,17,17,0,0,1-17.07-16.84,1,1,0,0,1,0-.24M1152.39,290c18.72,0,20-4.93,20-33.17V169.13c0-24.95-4.6-25.94-21-22.33-2.63.66-3.61-2-1-2.62,16.42-3.62,28.24-9.86,41-18.72,1-.66,5.91.65,5.91,2.29V256.82c0,28.24,1.32,33.17,19.71,33.17,2.63,0,2.63,2.95,0,2.95-9.53,0-26.6-.65-31.53-.65s-23.64.65-33.17.65c-2.63,0-2.63-2.95,0-2.95" fill="#161615"/><path id="a1178913-4dd8-4366-8768-58cf2026cb68" data-name="Pfad 39" d="M1291.31,282.1c22.66,0,45.65-30.21,48.6-41.05.33-4.27,2.3-23,2.3-49.91v-6.9l-26.93,11.49c-48.27,20.36-59.77,30.21-59.77,54.52,0,17.73,15.77,31.85,35.8,31.85m-58.78-22.33c0-22,21.34-43.68,82.1-67.32l27.59-10.84c-1.65-41.05-12.16-53.2-35.47-53.2-9.53,0-16.42,2.63-22,6.9-11.17,8.54-15.44,22.33-20.36,29.56-3,4.26-5.92,5.91-14.78,5.91-7.88,0-13.14-3-13.14-7.56,0-3.94,3.29-10.18,11.5-15.43,13.13-8.54,40.72-22.33,64-22.33,32.18,0,55.17,16.75,55.17,59.77,0,22-2.63,59.11-2.63,71.92,0,18.72,2.3,27.91,9.2,27.91,5.91,0,14.12-11.49,17.73-18.06,1.65-2.63,5.59,0,3.94,2.63-5.25,7.55-25.61,26.6-38.42,26.6-12.48,0-18.72-8.54-18.72-23.32,0-7.88.66-18.06,1.31-25-6.9,14.45-37.11,48.6-64.36,48.6-26.6,0-42.7-16.75-42.7-36.78" fill="#161615"/><path id="f8279f08-abe8-4c14-a088-ab612b3423a7" data-name="Pfad 40" d="M127.06,210.71c0,11.35-4.82,19.12-12,26.12-14.93-8.24-30.63-15.71-30.63-28.3,0-6.22,1.4-9.8,4.82-15.09,2.49-1.4,9.64-2.48,14.31-2.48,15.86,0,23.48,7,23.48,19.75m-16.48,81.64c-18.36,0-29.71-10.88-29.71-26.12,0-11.51,6.37-20.53,15.09-26.13,16.48,9.33,37.16,16.33,37.16,34.52,0,6.22-1.09,9-6.37,15.09-4,1.71-10.42,2.64-16.17,2.64M76.05,214.59c0,11.83,8.56,18.82,19,24.89-10.11,5.6-24.89,17-24.89,31.57,0,13.22,10.27,27.06,33.44,27.06,7.31,0,20.53-6.07,23.64-7.78,9.64-5.91,14.62-13.53,14.62-25,0-12.75-12.6-20.84-26-28.14,8.56-6.23,21.93-15.71,21.93-28s-9-22.86-28.15-22.86c-6.22,0-16.8,4.36-20.84,6.53C81,197.64,76.05,204,76.05,214.59M3.33,295.15H1a.72.72,0,0,0-.71.7.7.7,0,0,0,.7.7H1c4.5,0,16.32-.61,18.66-.61s13.06.61,17.57.61a.7.7,0,0,0,.71-.69.72.72,0,0,0-.7-.71H34.59c-9.64,0-10.11-5.28-10.11-23.64V189.09c0-.78-2.33-1.56-2.8-1.09-4.05,3.27-10.74,9-21,12.44-1.25.47-.62,2,.62,1.56,10.58-3.58,11.66-.94,11.66,8.08v61.43c0,18.51-.46,23.64-9.64,23.64" fill="#161615"/><path id="bc7feb27-e3e0-4d2d-8d4b-a94f6507f6d9" data-name="Pfad 41" d="M1597.74,292c-26.9,0-39.34-19.44-39.34-49.92,0-24.57,3.26-37.32,9.33-44,6.06-3.27,14.62-5.13,23.17-5.13,26.28,0,38.1,17.73,38.1,49.61,0,21-2.18,36.54-11,45.72-4,2-12.75,3.73-20.22,3.73m-5.75,6.07c10.42,0,20.68-4.82,26.59-9,9.8-6.84,21.62-24.58,21.62-47.44,0-35.14-13.07-54.42-44.79-54.42-9.33,0-22.55,5.9-28.46,10.26-10.88,8.08-19.91,22.08-19.91,46,0,37.48,15.87,54.59,45,54.59m-107.62-1.71c2.33,0,17.27.31,19.91.31,1.71,0,1.87-.31,1.87-.78a.83.83,0,0,0-.69-.93h-.25a38.92,38.92,0,0,1-4.82.46c-6.22,0-10.11-2.8-10.11-8.86,0-6.22,1.87-13.84,5.29-21.46l10.89-23.95c8.4-17.88,15.86-31.73,20.68-40.59.62-.78-.31-11-1.09-11-3,0-33.59.31-40.28.31h-20.84c-4.66,0-6.37.15-6.37.62-.16,2.64-.31,17.73-.94,26.6l-1.08,15.38c-.16,1.72,1.55,1.72,1.55.16l.94-15.55c.77-13.84,3.57-15.09,20.52-15.24H1522c-4.35,10.73-9.49,21.77-17.11,38.72L1494,264.36c-11,24.1-18,30.95-25.2,30.95h-4.35c-1.24,0-1.4,1.4-.16,1.4,3.89,0,17.89-.31,20.07-.31" fill="#161615"/></g></g></svg>